# xmcd
#
# Track frame offsets:
#	150
#	16418
#	34650
#	56101
#	73667
#	89310
#	106988
#	121118
#	137966
#	153885
#	169571
#	186160
#	200625
#	217277
#	233966
#	246783
#	265041
#	279887
#	298036
#	311754
#	326816
#
# Disc length: 4579 seconds
#
# Revision: 0
# Processed by: cddbd v1.5.1PL0 Copyright (c) Steve Scherf et al.
# Submitted via: audiograbber 1.81.03
#
DISCID=3a11e115
DTITLE=Various Artist - Dream Dance Family
DYEAR=2005
DGENRE=Dream
TTITLE0=DJ Shog - Running Water
TTITLE1=Cosmic Gate - Race Car Driver
TTITLE2=Marcos - Summer Solstice
TTITLE3=Above and Beyond with Andy Moor - Air For Life
TTITLE4=DJ Klubbingman feat. Trixi Delgado - Revolution
TTITLE5=Pulsedriver - Nothing Can Stop Us
TTITLE6=White Water - The Unknown
TTITLE7=Odin - Beam
TTITLE8=Liquid Space - Mental Thing 2005
TTITLE9=Santoro - Floating Away
TTITLE10=Angelina - Picture Of You
TTITLE11=Heiko and Maiko - Sonnenschein
TTITLE12=Purple Haze - Adrenaline
TTITLE13=Ron van den Beuken - Sunset
TTITLE14=Axwell - Feel The Vibe
TTITLE15=Thomas Datt pres. Two Roads - Antarctic Rain
TTITLE16=4 Strings - Sunrise
TTITLE17=Marcel Woods - Cherry Blossom
TTITLE18=Kyau vs. Albert - Tell Me
TTITLE19=Party Pimpz - Give It Up
TTITLE20=Royal Gigolos - Self Control
EXTD=
EXTT0=
EXTT1=
EXTT2=
EXTT3=
EXTT4=
EXTT5=
EXTT6=
EXTT7=
EXTT8=
EXTT9=
EXTT10=
EXTT11=
EXTT12=
EXTT13=
EXTT14=
EXTT15=
EXTT16=
EXTT17=
EXTT18=
EXTT19=
EXTT20=
PLAYORDER=
